<?xml version="1.0" encoding="iso-8859-1"?>
<!-- Generator: Adobe Illustrator 19.0.0, SVG Export Plug-In . SVG Version: 6.00 Build 0)  -->
<svg version="1.1" id="Capa_1" xmlns="http://www.w3.org/2000/svg" xmlns:xlink="http://www.w3.org/1999/xlink" x="0px" y="0px"
	 viewBox="0 0 512 512" style="enable-background:new 0 0 512 512;" xml:space="preserve">
<path style="fill:#34ABE0;" d="M512,256c0,27.763-4.42,54.491-12.591,79.527c-4.19,12.831-9.362,25.213-15.433,37.063
	c-22.141,43.207-56.205,79.287-97.855,103.915c-37.658,22.277-81.523,35.182-128.387,35.485C257.16,512,256.575,512,256,512
	s-1.16,0-1.735-0.01c-46.864-0.303-90.728-13.208-128.387-35.485c-41.65-24.628-75.713-60.709-97.855-103.915
	c-6.071-11.849-11.243-24.231-15.433-37.063c-6.175-18.923-10.209-38.818-11.807-59.392C0.261,269.49,0,262.781,0,256
	c0-1.797,0.021-3.594,0.063-5.392c0.188-9.237,0.867-18.348,2.017-27.314c1.139-9.038,2.769-17.93,4.838-26.645
	c4.765-20.093,11.901-39.288,21.107-57.24c15.736-30.699,37.48-57.804,63.697-79.747C136.182,22.413,193.463,0,256,0
	c19.561,0,38.599,2.194,56.905,6.343h0.01c40.208,9.132,76.81,27.721,107.363,53.321c7.711,6.457,15.036,13.354,21.932,20.668
	c16.562,17.533,30.657,37.407,41.765,59.079c11.766,22.967,20.167,47.95,24.545,74.282c1.452,8.735,2.466,17.627,3.009,26.645
	C511.843,245.52,512,250.744,512,256z"/>
<path style="fill:#EDBB4C;" d="M499.409,81.596v253.931c-4.19,12.831-9.362,25.213-15.433,37.063
	c-22.141,43.207-56.205,79.287-97.855,103.915c-37.658,22.277-81.523,35.182-128.387,35.485C257.16,512,256.575,512,256,512
	s-1.16,0-1.735-0.01c-46.864-0.303-90.728-13.208-128.387-35.485c-41.65-24.628-75.713-60.709-97.855-103.915
	c-6.071-11.849-11.243-24.231-15.433-37.063V81.596H499.409z"/>
<g>
	<path style="fill:#F9EED7;" d="M256,107.98V512c-0.575,0-1.16,0-1.735-0.01c-5.611-20.459-24.346-35.485-46.582-35.485h-81.805
		c-41.65-24.628-75.713-60.709-97.855-103.915V59.664h179.66c16.948,0,31.859,8.725,40.479,21.932
		C253.116,89.182,256,98.241,256,107.98z"/>
	<path style="fill:#F9EED7;" d="M483.976,59.664V372.59c-22.141,43.207-56.205,79.287-97.855,103.915h-81.805
		c-4.848,0-9.529,0.711-13.949,2.048c-15.841,4.765-28.244,17.439-32.632,33.437C257.16,512,256.575,512,256,512V107.98
		c0-9.738,2.873-18.808,7.837-26.384c6.154-9.425,15.517-16.572,26.53-19.884c4.42-1.337,9.101-2.048,13.949-2.048H483.976z"/>
</g>
<path style="fill:#E8DBC4;" d="M290.367,61.712v416.841c-15.841,4.765-28.244,17.439-32.632,33.437C257.16,512,256.575,512,256,512
	V107.98c0-9.738,2.873-18.808,7.837-26.384C269.991,72.171,279.353,65.024,290.367,61.712z"/>
<g>
	<path style="fill:#5C5E70;" d="M440.424,143.433H309.812c-5.771,0-10.449-4.678-10.449-10.449l0,0
		c0-5.771,4.678-10.449,10.449-10.449h130.612c5.771,0,10.449,4.678,10.449,10.449l0,0
		C450.873,138.755,446.195,143.433,440.424,143.433z"/>
	<path style="fill:#5C5E70;" d="M440.424,228.816H309.812c-5.771,0-10.449-4.678-10.449-10.449l0,0
		c0-5.771,4.678-10.449,10.449-10.449h130.612c5.771,0,10.449,4.678,10.449,10.449l0,0
		C450.873,224.138,446.195,228.816,440.424,228.816z"/>
	<path style="fill:#5C5E70;" d="M440.424,356.891H309.812c-5.771,0-10.449-4.678-10.449-10.449l0,0
		c0-5.771,4.678-10.449,10.449-10.449h130.612c5.771,0,10.449,4.678,10.449,10.449l0,0
		C450.873,352.213,446.195,356.891,440.424,356.891z"/>
	<path style="fill:#5C5E70;" d="M440.424,186.125H309.812c-5.771,0-10.449-4.678-10.449-10.449l0,0
		c0-5.771,4.678-10.449,10.449-10.449h130.612c5.771,0,10.449,4.678,10.449,10.449l0,0
		C450.873,181.447,446.195,186.125,440.424,186.125z"/>
	<path style="fill:#5C5E70;" d="M440.424,271.507H309.812c-5.771,0-10.449-4.678-10.449-10.449l0,0
		c0-5.771,4.678-10.449,10.449-10.449h130.612c5.771,0,10.449,4.678,10.449,10.449l0,0
		C450.873,266.829,446.195,271.507,440.424,271.507z"/>
	<path style="fill:#5C5E70;" d="M440.424,314.2H309.812c-5.771,0-10.449-4.678-10.449-10.449l0,0
		c0-5.771,4.678-10.449,10.449-10.449h130.612c5.771,0,10.449,4.678,10.449,10.449l0,0C450.873,309.521,446.195,314.2,440.424,314.2
		z"/>
	<path style="fill:#5C5E70;" d="M440.424,399.583H309.812c-5.771,0-10.449-4.678-10.449-10.449l0,0
		c0-5.771,4.678-10.449,10.449-10.449h130.612c5.771,0,10.449,4.678,10.449,10.449l0,0
		C450.873,394.905,446.195,399.583,440.424,399.583z"/>
	<path style="fill:#5C5E70;" d="M202.188,143.433H71.576c-5.771,0-10.449-4.678-10.449-10.449l0,0
		c0-5.771,4.678-10.449,10.449-10.449h130.612c5.771,0,10.449,4.678,10.449,10.449l0,0
		C212.637,138.755,207.959,143.433,202.188,143.433z"/>
	<path style="fill:#5C5E70;" d="M202.188,228.816H71.576c-5.771,0-10.449-4.678-10.449-10.449l0,0
		c0-5.771,4.678-10.449,10.449-10.449h130.612c5.771,0,10.449,4.678,10.449,10.449l0,0
		C212.637,224.138,207.959,228.816,202.188,228.816z"/>
	<path style="fill:#5C5E70;" d="M202.188,356.891H71.576c-5.771,0-10.449-4.678-10.449-10.449l0,0
		c0-5.771,4.678-10.449,10.449-10.449h130.612c5.771,0,10.449,4.678,10.449,10.449l0,0
		C212.637,352.213,207.959,356.891,202.188,356.891z"/>
	<path style="fill:#5C5E70;" d="M202.188,186.125H71.576c-5.771,0-10.449-4.678-10.449-10.449l0,0
		c0-5.771,4.678-10.449,10.449-10.449h130.612c5.771,0,10.449,4.678,10.449,10.449l0,0
		C212.637,181.447,207.959,186.125,202.188,186.125z"/>
	<path style="fill:#5C5E70;" d="M202.188,271.507H71.576c-5.771,0-10.449-4.678-10.449-10.449l0,0
		c0-5.771,4.678-10.449,10.449-10.449h130.612c5.771,0,10.449,4.678,10.449,10.449l0,0
		C212.637,266.829,207.959,271.507,202.188,271.507z"/>
	<path style="fill:#5C5E70;" d="M202.188,314.2H71.576c-5.771,0-10.449-4.678-10.449-10.449l0,0c0-5.771,4.678-10.449,10.449-10.449
		h130.612c5.771,0,10.449,4.678,10.449,10.449l0,0C212.637,309.521,207.959,314.2,202.188,314.2z"/>
	<path style="fill:#5C5E70;" d="M202.188,399.583H71.576c-5.771,0-10.449-4.678-10.449-10.449l0,0
		c0-5.771,4.678-10.449,10.449-10.449h130.612c5.771,0,10.449,4.678,10.449,10.449l0,0
		C212.637,394.905,207.959,399.583,202.188,399.583z"/>
</g>
<g>
</g>
<g>
</g>
<g>
</g>
<g>
</g>
<g>
</g>
<g>
</g>
<g>
</g>
<g>
</g>
<g>
</g>
<g>
</g>
<g>
</g>
<g>
</g>
<g>
</g>
<g>
</g>
<g>
</g>
</svg>
