<svg height="512pt" viewBox="0 0 512 512" width="512pt" xmlns="http://www.w3.org/2000/svg"><path d="m490.101562 21.898438c-13.5-13.5-32.402343-21.898438-53.101562-21.898438h-362c-41.398438 0-75 33.601562-75 75v362c0 20.699219 8.402344 39.601562 21.898438 53.097656 13.5 13.5 32.402343 21.902344 53.101562 21.902344h362c41.398438 0 75-33.601562 75-75v-362c0-20.699219-8.402344-39.601562-21.898438-53.101562zm0 0" fill="#ff9f00"/><path d="m512 75v362c0 41.398438-33.601562 75-75 75h-362c-20.699219 0-39.601562-8.402344-53.101562-21.902344 99.378906-99.371094 352.917968-352.914062 468.203124-468.199218 13.496094 13.5 21.898438 32.402343 21.898438 53.101562zm0 0" fill="#ff7816"/><g fill="#c6e2e7"><path d="m325.300781 341.5c-8.699219-38.101562-28.5-72.601562-55.5-99.300781-26.699219-27-61.199219-46.800781-99.300781-55.5-22.800781-5.398438-45.898438-6.898438-68.699219-4.800781-22.800781 2.101562-40.800781 21.902343-40.800781 45 0 26.402343 22.800781 47.101562 48.898438 44.699218 10.800781-1.199218 21.902343-.597656 32.699218 1.203125 24.003906 4.199219 46.203125 16.199219 63.300782 33.300781 17.101562 17.097657 29.101562 39.296876 33.300781 63.296876 1.800781 10.800781 2.402343 21.902343 1.199219 32.703124-1.199219 12.597657 3 24.902344 11.699218 34.199219 8.402344 9.300781 20.402344 14.699219 33 14.699219 23.101563 0 42.902344-18 45-40.800781 2.101563-22.800781.601563-45.898438-4.796875-68.699219zm0 0"/><path d="m448 345.097656c-9.898438-72.898437-43.800781-138.296875-93.300781-187.796875s-114.898438-83.402343-187.796875-93.300781c-21-2.699219-42.003906-3.601562-62.703125-2.699219-24.300781 1.5-43.199219 21.296875-43.199219 45.296875 0 25.503906 21 46.203125 47.101562 44.703125 18.296876-.902343 36.898438.296875 55.199219 3.300781 48.898438 8.398438 93 32.398438 127.199219 66.898438 34.5 34.199219 58.5 78.300781 66.898438 127.199219 2.402343 14.402343 3.601562 28.800781 3.601562 43.199219 0 3.902343 0 8.101562-.300781 12-1.5 25.800781 18.902343 47.101562 44.699219 47.101562 24.003906 0 43.800781-18.898438 45.300781-43.199219.902343-20.699219 0-41.703125-2.699219-62.703125zm0 0"/><path d="m163.300781 348.699219c-10.800781-11.101563-25.800781-17.699219-42.300781-17.699219-33 0-60 27-60 60 0 16.5 6.597656 31.5 17.699219 42.300781 10.800781 11.097657 25.800781 17.699219 42.300781 17.699219 33 0 60-27 60-60 0-16.5-6.597656-31.5-17.699219-42.300781zm0 0"/><path d="m163.300781 348.699219c11.101563 10.800781 17.699219 25.800781 17.699219 42.300781 0 33-27 60-60 60-16.5 0-31.5-6.601562-42.300781-17.699219zm0 0"/><path d="m325.300781 341.5c5.398438 22.800781 6.898438 45.898438 4.796875 68.699219-2.097656 22.796875-21.898437 40.800781-45 40.800781-12.597656 0-24.597656-5.398438-32.996094-14.699219-8.699218-9.300781-12.902343-21.601562-11.703124-34.199219 1.203124-10.800781.601562-21.902343-1.199219-32.703124-4.199219-24-16.195313-46.199219-33.296875-63.300782l63.898437-63.898437c27 26.699219 46.800781 61.199219 55.5 99.300781zm0 0"/><path d="m450.699219 407.800781c-1.5 24.300781-21.296875 43.199219-45.300781 43.199219-25.796876 0-46.199219-21.300781-44.699219-47.101562.300781-3.898438.300781-8.097657.300781-12 0-14.398438-1.199219-28.796876-3.601562-43.199219-8.398438-48.898438-32.398438-93-66.898438-127.199219l64.199219-64.199219c49.5 49.5 83.402343 114.898438 93.300781 187.796875 2.699219 21 3.601562 42.003906 2.699219 62.703125zm0 0"/></g></svg>